<svg xmlns="http://www.w3.org/2000/svg" width="900" height="760" viewBox="0 0 900 760" font-family="system-ui, sans-serif">
<rect width="900" height="760" fill="#0b0d14"/>
<defs><marker id="arr" viewBox="0 0 10 10" refX="9" refY="5" markerWidth="7" markerHeight="7" orient="auto">
       <path d="M0,0 L10,5 L0,10 z" fill="#7a86b3"/></marker></defs>
<path d="M450,74 L450,100" stroke="#7a86b3" stroke-width="1.5" marker-end="url(#arr)" fill="none"/>
<path d="M450,154 L450,180" stroke="#7a86b3" stroke-width="1.5" marker-end="url(#arr)" fill="none"/>
<path d="M450,234 L450,260" stroke="#7a86b3" stroke-width="1.5" marker-end="url(#arr)" fill="none"/>
<path d="M450,314 L450,340" stroke="#7a86b3" stroke-width="1.5" marker-end="url(#arr)" fill="none"/>
<path d="M450,394 L450,420" stroke="#7a86b3" stroke-width="1.5" marker-end="url(#arr)" fill="none"/>
<path d="M450,474 L450,500" stroke="#7a86b3" stroke-width="1.5" marker-end="url(#arr)" fill="none"/>
<path d="M450,554 L450,580" stroke="#7a86b3" stroke-width="1.5" marker-end="url(#arr)" fill="none"/>
<path d="M450,634 L450,660" stroke="#7a86b3" stroke-width="1.5" marker-end="url(#arr)" fill="none"/>
<text x="70" y="47" text-anchor="middle" fill="#8a93b8" font-size="11">bytes</text>
<path d="M112,43 L239,43" stroke="#7a86b3" stroke-width="1" marker-end="url(#arr)" fill="none" opacity="0.5" stroke-dasharray="4,3"/>
<text x="70" y="127" text-anchor="middle" fill="#8a93b8" font-size="11">packet</text>
<path d="M112,123 L239,123" stroke="#7a86b3" stroke-width="1" marker-end="url(#arr)" fill="none" opacity="0.5" stroke-dasharray="4,3"/>
<text x="70" y="207" text-anchor="middle" fill="#8a93b8" font-size="11">AST (LEX)</text>
<path d="M112,203 L239,203" stroke="#7a86b3" stroke-width="1" marker-end="url(#arr)" fill="none" opacity="0.5" stroke-dasharray="4,3"/>
<text x="70" y="287" text-anchor="middle" fill="#8a93b8" font-size="11">TABLE/Item</text>
<path d="M112,283 L239,283" stroke="#7a86b3" stroke-width="1" marker-end="url(#arr)" fill="none" opacity="0.5" stroke-dasharray="4,3"/>
<text x="70" y="367" text-anchor="middle" fill="#8a93b8" font-size="11">JOIN+POSITION</text>
<path d="M112,363 L239,363" stroke="#7a86b3" stroke-width="1" marker-end="url(#arr)" fill="none" opacity="0.5" stroke-dasharray="4,3"/>
<text x="70" y="447" text-anchor="middle" fill="#8a93b8" font-size="11">JOIN_TAB[]</text>
<path d="M112,443 L239,443" stroke="#7a86b3" stroke-width="1" marker-end="url(#arr)" fill="none" opacity="0.5" stroke-dasharray="4,3"/>
<text x="70" y="527" text-anchor="middle" fill="#8a93b8" font-size="11">行 record[0]</text>
<path d="M112,523 L239,523" stroke="#7a86b3" stroke-width="1" marker-end="url(#arr)" fill="none" opacity="0.5" stroke-dasharray="4,3"/>
<text x="70" y="607" text-anchor="middle" fill="#8a93b8" font-size="11">handler ref</text>
<path d="M112,603 L239,603" stroke="#7a86b3" stroke-width="1" marker-end="url(#arr)" fill="none" opacity="0.5" stroke-dasharray="4,3"/>
<text x="70" y="687" text-anchor="middle" fill="#8a93b8" font-size="11">行 buffer</text>
<path d="M112,683 L239,683" stroke="#7a86b3" stroke-width="1" marker-end="url(#arr)" fill="none" opacity="0.5" stroke-dasharray="4,3"/>
<rect x="240" y="20" width="420" height="54" rx="7" fill="#13162a" stroke="#4ecdc4" stroke-width="1.5"/>
<text x="450.0" y="44" text-anchor="middle" fill="#e8eaf2" font-size="14" font-weight="600">TCP 连接字节流</text>
<text x="450.0" y="62" text-anchor="middle" fill="#8a93b8" font-size="10.5">socket → vio/ vio_read → my_net_read (sql/net_serv.cc)</text>
<rect x="240" y="100" width="420" height="54" rx="7" fill="#13162a" stroke="#4ecdc4" stroke-width="1.5"/>
<text x="450.0" y="124" text-anchor="middle" fill="#e8eaf2" font-size="14" font-weight="600">命令包 (COM_QUERY)</text>
<text x="450.0" y="142" text-anchor="middle" fill="#8a93b8" font-size="10.5">dispatch_command (sql/sql_parse.cc) → alloc_query</text>
<rect x="240" y="180" width="420" height="54" rx="7" fill="#13162a" stroke="#b388ff" stroke-width="1.5"/>
<text x="450.0" y="204" text-anchor="middle" fill="#e8eaf2" font-size="14" font-weight="600">词法+语法解析</text>
<text x="450.0" y="222" text-anchor="middle" fill="#8a93b8" font-size="10.5">Lex_input_stream → MYSQLparse (sql_yacc.yy) → LEX 语法树</text>
<rect x="240" y="260" width="420" height="54" rx="7" fill="#13162a" stroke="#6c8ef5" stroke-width="1.5"/>
<text x="450.0" y="284" text-anchor="middle" fill="#e8eaf2" font-size="14" font-weight="600">语义分析与权限</text>
<text x="450.0" y="302" text-anchor="middle" fill="#8a93b8" font-size="10.5">fix_fields → open_tables → check_grant (sql/sql_acl.cc)</text>
<rect x="240" y="340" width="420" height="54" rx="7" fill="#13162a" stroke="#f9ca24" stroke-width="1.5"/>
<text x="450.0" y="364" text-anchor="middle" fill="#e8eaf2" font-size="14" font-weight="600">查询优化</text>
<text x="450.0" y="382" text-anchor="middle" fill="#8a93b8" font-size="10.5">JOIN::prepare → JOIN::optimize (sql/sql_select.cc)</text>
<rect x="240" y="420" width="420" height="54" rx="7" fill="#13162a" stroke="#f9ca24" stroke-width="1.5"/>
<text x="450.0" y="444" text-anchor="middle" fill="#e8eaf2" font-size="14" font-weight="600">计划编译</text>
<text x="450.0" y="462" text-anchor="middle" fill="#8a93b8" font-size="10.5">make_join_readinfo → JOIN_TAB 数组 (函数指针程序)</text>
<rect x="240" y="500" width="420" height="54" rx="7" fill="#13162a" stroke="#f9ca24" stroke-width="1.5"/>
<text x="450.0" y="524" text-anchor="middle" fill="#e8eaf2" font-size="14" font-weight="600">执行循环</text>
<text x="450.0" y="542" text-anchor="middle" fill="#8a93b8" font-size="10.5">do_select → sub_select 递归 → evaluate_join_record</text>
<rect x="240" y="580" width="420" height="54" rx="7" fill="#13162a" stroke="#ff6b9d" stroke-width="1.5"/>
<text x="450.0" y="604" text-anchor="middle" fill="#e8eaf2" font-size="14" font-weight="600">存储引擎调用</text>
<text x="450.0" y="622" text-anchor="middle" fill="#8a93b8" font-size="10.5">ha_rnd_next / ha_index_read_map (sql/handler.cc)</text>
<rect x="240" y="660" width="420" height="54" rx="7" fill="#13162a" stroke="#ff6b9d" stroke-width="1.5"/>
<text x="450.0" y="684" text-anchor="middle" fill="#e8eaf2" font-size="14" font-weight="600">InnoDB 行访问</text>
<text x="450.0" y="702" text-anchor="middle" fill="#8a93b8" font-size="10.5">row_search_mvcc (storage/innobase/row/row0sel.cc) → buf</text>
<path d="M665,687 L690,687 L690,47 L665,47" stroke="#4ecdc4" stroke-width="1.2" fill="none" opacity="0.6" stroke-dasharray="5,4" marker-end="url(#arr)"/>
<text x="700" y="340" fill="#4ecdc4" font-size="10">结果集回传</text>
<text x="700" y="356" fill="#4ecdc4" font-size="10">Protocol::store</text>
<text x="700" y="372" fill="#4ecdc4" font-size="10">→ net_write_command</text>
<text x="700" y="388" fill="#4ecdc4" font-size="10">→ TCP</text>
</svg>