<?xml version="1.0" encoding="UTF-8"?>
<svg xmlns="http://www.w3.org/2000/svg" width="920" height="740" viewBox="0 0 920 740" font-family="system-ui, sans-serif">
<rect width="920" height="740" fill="#0b0d14"/>
<defs><marker id="arrow" viewBox="0 0 10 10" refX="9" refY="5" markerWidth="7" markerHeight="7" orient="auto"><path d="M0,0 L10,5 L0,10 z" fill="#7a86b3"/></marker><marker id="arrowc" viewBox="0 0 10 10" refX="9" refY="5" markerWidth="7" markerHeight="7" orient="auto"><path d="M0,0 L10,5 L0,10 z" fill="#4ecdc4"/></marker><marker id="arrowy" viewBox="0 0 10 10" refX="9" refY="5" markerWidth="7" markerHeight="7" orient="auto"><path d="M0,0 L10,5 L0,10 z" fill="#f9ca24"/></marker><marker id="arrowp" viewBox="0 0 10 10" refX="9" refY="5" markerWidth="7" markerHeight="7" orient="auto"><path d="M0,0 L10,5 L0,10 z" fill="#b388ff"/></marker><marker id="arrowb" viewBox="0 0 10 10" refX="9" refY="5" markerWidth="7" markerHeight="7" orient="auto"><path d="M0,0 L10,5 L0,10 z" fill="#6c8ef5"/></marker></defs>
<text x="460.0" y="29" text-anchor="middle" fill="#e8ebf5" font-size="17">ClickHouse 分层架构</text><rect x="15" y="55" width="890" height="92" rx="8" fill="none" stroke="#4ecdc4" stroke-width="1" stroke-dasharray="3 4" opacity="0.35"/><text x="24" y="106.0" text-anchor="start" fill="#4ecdc4" font-size="13">网络协议层</text><rect x="150.0" y="68" width="175.75" height="66" rx="6" fill="#13162a" stroke="#4ecdc4" stroke-width="1.5"/><text x="238" y="98" text-anchor="middle" fill="#e8ebf5" font-size="13">HTTPHandler</text><text x="238" y="117" text-anchor="middle" fill="#9aa3c0" font-size="10">HTTP</text><rect x="339.75" y="68" width="175.75" height="66" rx="6" fill="#13162a" stroke="#4ecdc4" stroke-width="1.5"/><text x="428" y="98" text-anchor="middle" fill="#e8ebf5" font-size="13">TCPHandler</text><text x="428" y="117" text-anchor="middle" fill="#9aa3c0" font-size="10">原生TCP</text><rect x="529.5" y="68" width="175.75" height="66" rx="6" fill="#13162a" stroke="#4ecdc4" stroke-width="1.5"/><text x="617" y="98" text-anchor="middle" fill="#e8ebf5" font-size="13">MySQLHandler</text><text x="617" y="117" text-anchor="middle" fill="#9aa3c0" font-size="10">MySQL兼容</text><rect x="719.25" y="68" width="175.75" height="66" rx="6" fill="#13162a" stroke="#4ecdc4" stroke-width="1.5"/><text x="807" y="98" text-anchor="middle" fill="#e8ebf5" font-size="13">gRPCServer</text><text x="807" y="117" text-anchor="middle" fill="#9aa3c0" font-size="10">gRPC</text><path d="M878,147 L878,163" fill="none" stroke="#9aa3c0" stroke-width="1.5" marker-end="url(#arrow)"/><rect x="15" y="163" width="890" height="92" rx="8" fill="none" stroke="#6c8ef5" stroke-width="1" stroke-dasharray="3 4" opacity="0.35"/><text x="24" y="214.0" text-anchor="start" fill="#6c8ef5" font-size="13">查询流水线层</text><rect x="150.0" y="176" width="175.75" height="66" rx="6" fill="#13162a" stroke="#6c8ef5" stroke-width="1.5"/><text x="238" y="206" text-anchor="middle" fill="#e8ebf5" font-size="13">Parsers</text><text x="238" y="225" text-anchor="middle" fill="#9aa3c0" font-size="10">SQL→AST</text><rect x="339.75" y="176" width="175.75" height="66" rx="6" fill="#13162a" stroke="#6c8ef5" stroke-width="1.5"/><text x="428" y="206" text-anchor="middle" fill="#e8ebf5" font-size="13">Analyzer</text><text x="428" y="225" text-anchor="middle" fill="#9aa3c0" font-size="10">AST→QueryTree</text><rect x="529.5" y="176" width="175.75" height="66" rx="6" fill="#13162a" stroke="#6c8ef5" stroke-width="1.5"/><text x="617" y="206" text-anchor="middle" fill="#e8ebf5" font-size="13">Planner</text><text x="617" y="225" text-anchor="middle" fill="#9aa3c0" font-size="10">→QueryPlan</text><rect x="719.25" y="176" width="175.75" height="66" rx="6" fill="#13162a" stroke="#6c8ef5" stroke-width="1.5"/><text x="807" y="206" text-anchor="middle" fill="#e8ebf5" font-size="13">Interpreters</text><text x="807" y="225" text-anchor="middle" fill="#9aa3c0" font-size="10">Context 编排</text><path d="M878,255 L878,271" fill="none" stroke="#9aa3c0" stroke-width="1.5" marker-end="url(#arrow)"/><rect x="15" y="271" width="890" height="92" rx="8" fill="none" stroke="#f9ca24" stroke-width="1" stroke-dasharray="3 4" opacity="0.35"/><text x="24" y="322.0" text-anchor="start" fill="#f9ca24" font-size="13">执行引擎层</text><rect x="150.0" y="284" width="365.5" height="66" rx="6" fill="#13162a" stroke="#f9ca24" stroke-width="1.5"/><text x="333" y="314" text-anchor="middle" fill="#e8ebf5" font-size="13">Processors</text><text x="333" y="333" text-anchor="middle" fill="#9aa3c0" font-size="10">IProcessor DAG 拉模型</text><rect x="529.5" y="284" width="365.5" height="66" rx="6" fill="#13162a" stroke="#f9ca24" stroke-width="1.5"/><text x="712" y="314" text-anchor="middle" fill="#e8ebf5" font-size="13">QueryPipeline</text><text x="712" y="333" text-anchor="middle" fill="#9aa3c0" font-size="10">流水线封装+Builder</text><path d="M878,363 L878,379" fill="none" stroke="#9aa3c0" stroke-width="1.5" marker-end="url(#arrow)"/><rect x="15" y="379" width="890" height="92" rx="8" fill="none" stroke="#6c8ef5" stroke-width="1" stroke-dasharray="3 4" opacity="0.35"/><text x="24" y="430.0" text-anchor="start" fill="#6c8ef5" font-size="13">数据模型层</text><rect x="150.0" y="392" width="175.75" height="66" rx="6" fill="#13162a" stroke="#6c8ef5" stroke-width="1.5"/><text x="238" y="422" text-anchor="middle" fill="#e8ebf5" font-size="13">Core</text><text x="238" y="441" text-anchor="middle" fill="#9aa3c0" font-size="10">Block 批次</text><rect x="339.75" y="392" width="175.75" height="66" rx="6" fill="#13162a" stroke="#6c8ef5" stroke-width="1.5"/><text x="428" y="422" text-anchor="middle" fill="#e8ebf5" font-size="13">Columns</text><text x="428" y="441" text-anchor="middle" fill="#9aa3c0" font-size="10">IColumn 列抽象</text><rect x="529.5" y="392" width="175.75" height="66" rx="6" fill="#13162a" stroke="#6c8ef5" stroke-width="1.5"/><text x="617" y="422" text-anchor="middle" fill="#e8ebf5" font-size="13">DataTypes</text><text x="617" y="441" text-anchor="middle" fill="#9aa3c0" font-size="10">IDataType+Factory</text><rect x="719.25" y="392" width="175.75" height="66" rx="6" fill="#13162a" stroke="#6c8ef5" stroke-width="1.5"/><text x="807" y="422" text-anchor="middle" fill="#e8ebf5" font-size="13">Functions</text><text x="807" y="441" text-anchor="middle" fill="#9aa3c0" font-size="10">IFunction+Factory</text><path d="M878,471 L878,487" fill="none" stroke="#9aa3c0" stroke-width="1.5" marker-end="url(#arrow)"/><rect x="15" y="487" width="890" height="92" rx="8" fill="none" stroke="#b388ff" stroke-width="1" stroke-dasharray="3 4" opacity="0.35"/><text x="24" y="538.0" text-anchor="start" fill="#b388ff" font-size="13">存储引擎层</text><rect x="150.0" y="500" width="239.0" height="66" rx="6" fill="#13162a" stroke="#b388ff" stroke-width="1.5"/><text x="270" y="530" text-anchor="middle" fill="#e8ebf5" font-size="13">MergeTree</text><text x="270" y="549" text-anchor="middle" fill="#9aa3c0" font-size="10">data part+merge</text><rect x="403.0" y="500" width="239.0" height="66" rx="6" fill="#13162a" stroke="#b388ff" stroke-width="1.5"/><text x="522" y="530" text-anchor="middle" fill="#e8ebf5" font-size="13">IO/Disks</text><text x="522" y="549" text-anchor="middle" fill="#9aa3c0" font-size="10">ReadBuffer/IDisk</text><rect x="656.0" y="500" width="239.0" height="66" rx="6" fill="#13162a" stroke="#b388ff" stroke-width="1.5"/><text x="776" y="530" text-anchor="middle" fill="#e8ebf5" font-size="13">Compression</text><text x="776" y="549" text-anchor="middle" fill="#9aa3c0" font-size="10">ICompressionCodec</text><path d="M878,579 L878,595" fill="none" stroke="#9aa3c0" stroke-width="1.5" marker-end="url(#arrow)"/><rect x="15" y="595" width="890" height="92" rx="8" fill="none" stroke="#80c7ff" stroke-width="1" stroke-dasharray="3 4" opacity="0.35"/><text x="24" y="646.0" text-anchor="start" fill="#80c7ff" font-size="13">基础设施层</text><rect x="150.0" y="608" width="239.0" height="66" rx="6" fill="#13162a" stroke="#80c7ff" stroke-width="1.5"/><text x="270" y="638" text-anchor="middle" fill="#e8ebf5" font-size="13">Common</text><text x="270" y="657" text-anchor="middle" fill="#9aa3c0" font-size="10">Exception/Arena</text><rect x="403.0" y="608" width="239.0" height="66" rx="6" fill="#13162a" stroke="#80c7ff" stroke-width="1.5"/><text x="522" y="638" text-anchor="middle" fill="#e8ebf5" font-size="13">Access</text><text x="522" y="657" text-anchor="middle" fill="#9aa3c0" font-size="10">RBAC/Quota</text><rect x="656.0" y="608" width="239.0" height="66" rx="6" fill="#13162a" stroke="#80c7ff" stroke-width="1.5"/><text x="776" y="638" text-anchor="middle" fill="#e8ebf5" font-size="13">Coordination</text><text x="776" y="657" text-anchor="middle" fill="#9aa3c0" font-size="10">Keeper/Raft</text><text x="878" y="317.0" text-anchor="middle" fill="#9aa3c0" font-size="9">查询
下行</text><path d="M40,687 L40,55" fill="none" stroke="#80c7ff" stroke-width="1.5" stroke-dasharray="4 3" marker-end="url(#arrow)"/><text x="30" y="376.0" text-anchor="start" fill="#80c7ff" font-size="9">数据回流</text></svg>
